<?xml version="1.0" standalone="no"?>
<!DOCTYPE svg PUBLIC "-//W3C//DTD SVG 20010904//EN"
 "http://www.w3.org/TR/2001/REC-SVG-20010904/DTD/svg10.dtd">
<svg version="1.0" xmlns="http://www.w3.org/2000/svg"
 width="276.000000pt" height="276.000000pt" viewBox="0 0 276.000000 276.000000"
 preserveAspectRatio="xMidYMid meet">

<g transform="translate(0.000000,276.000000) scale(0.100000,-0.100000)"
fill="#000000" stroke="none">
<path d="M1208 2504 c-4 -3 10 -21 30 -40 37 -34 37 -34 10 -28 -21 5 -28 2
-28 -9 0 -8 5 -17 11 -19 18 -6 -12 -48 -33 -48 -11 0 -15 -5 -12 -15 4 -8 1
-15 -4 -15 -14 0 -62 -48 -62 -62 0 -6 9 -8 20 -5 28 7 25 -8 -5 -21 -26 -12
-34 -32 -13 -32 6 0 4 -6 -7 -13 -17 -13 -17 -14 4 -29 18 -13 19 -17 6 -21
-23 -9 -18 -26 10 -33 24 -6 25 -8 10 -23 -20 -23 -19 -42 1 -34 13 5 15 2 9
-15 -4 -16 -2 -22 8 -22 10 0 13 -8 9 -25 -2 -14 0 -25 6 -25 6 0 14 -22 18
-50 5 -35 11 -50 21 -50 10 0 14 -7 10 -20 -3 -11 -1 -23 4 -26 5 -3 9 -16 9
-30 0 -13 5 -24 12 -24 6 0 8 -3 4 -7 -3 -4 -17 3 -29 15 -12 12 -34 32 -49
43 -16 11 -28 29 -28 39 0 10 -6 25 -13 32 -7 7 -23 27 -35 45 -12 17 -31 35
-42 38 -10 3 -19 14 -19 23 -1 9 -4 45 -7 80 -4 42 -3 67 5 75 23 23 10 55
-49 118 -54 57 -60 67 -61 109 l-1 45 -12 -47 c-8 -35 -27 -65 -74 -117 -56
-63 -61 -72 -51 -94 8 -18 7 -36 -5 -77 -11 -37 -13 -57 -5 -66 7 -9 2 -17
-20 -30 -17 -10 -31 -22 -31 -26 0 -4 -5 -8 -11 -8 -5 0 -42 -15 -80 -32 l-70
-33 6 -55 c8 -68 17 -190 19 -250 l1 -45 -55 -18 c-30 -10 -89 -27 -130 -37
-85 -23 -95 -30 -78 -52 12 -15 24 -13 133 23 93 31 128 38 155 33 63 -13 87
-9 95 17 7 20 59 49 88 49 20 0 9 -50 -12 -58 -37 -13 -34 -51 7 -82 14 -11
23 -21 21 -23 -27 -15 -100 -47 -121 -51 -17 -4 -37 -21 -52 -44 -14 -20 -48
-62 -77 -92 -29 -30 -58 -64 -64 -75 -6 -11 -23 -21 -38 -23 -15 -2 -27 -7
-27 -11 0 -4 -14 -23 -31 -42 l-30 -34 -190 0 -189 0 0 -512 0 -513 1380 0
1380 0 -2 512 -3 513 -90 0 c-49 0 -95 3 -101 7 -7 5 -14 25 -17 45 -21 138
-23 146 -59 177 -80 70 -138 117 -172 137 -35 21 -38 21 -119 6 -45 -9 -109
-19 -142 -22 -33 -3 -75 -9 -92 -12 -30 -5 -33 -3 -33 19 0 14 6 46 14 72 13
44 13 49 -10 96 -13 27 -24 54 -24 60 0 5 -4 10 -9 10 -18 0 -88 116 -101 167
-8 29 -12 54 -9 56 7 6 300 95 345 105 42 9 42 9 64 -30 14 -25 35 -45 56 -54
52 -22 62 -16 21 11 -38 26 -72 78 -62 95 3 5 52 24 108 41 101 32 127 44 127
59 0 18 -33 18 -84 1 -29 -11 -89 -27 -132 -36 -44 -10 -85 -22 -91 -28 -12
-9 -375 -129 -378 -124 -1 1 -17 30 -34 63 -18 34 -55 87 -82 117 l-50 56 26
41 c14 22 29 40 33 41 4 0 18 2 32 4 14 1 38 -3 54 -11 40 -19 49 -18 76 11
18 20 21 28 12 37 -18 18 -15 26 10 30 38 5 34 37 -8 72 -36 30 -43 31 -147
36 -104 6 -111 7 -131 33 -22 27 -59 36 -71 17 -9 -15 -41 -12 -55 5 -10 12
-24 14 -54 10 -36 -6 -48 -2 -95 29 -54 37 -63 40 -73 30z m-379 -751 c27 -77
29 -89 16 -103 -8 -9 -15 -21 -15 -27 0 -5 -25 -16 -55 -23 -70 -17 -90 -4
-82 52 3 21 1 40 -3 43 -12 7 -7 74 5 83 6 4 16 19 23 33 10 19 22 26 47 27
32 1 33 0 64 -85z m374 -110 c21 -6 22 -17 2 -33 -12 -10 -15 -9 -15 5 0 9 -9
19 -20 22 -11 3 -20 10 -20 15 0 6 8 7 18 3 9 -4 25 -10 35 -12z m1113 -372
c82 -61 134 -137 105 -155 -18 -11 -13 -23 24 -60 l34 -35 -86 3 c-83 2 -87 3
-94 27 -3 14 -34 72 -69 128 -68 114 -68 121 6 121 30 0 52 -8 80 -29z m-198
-109 c17 -20 62 -119 62 -135 0 -1 -127 -3 -282 -3 -156 0 -272 1 -258 3 48 8
90 25 90 37 0 21 -23 36 -55 36 -44 0 -73 23 -59 47 6 10 23 22 39 28 22 8 29
6 40 -8 19 -26 132 -22 220 8 93 33 169 28 203 -13z m-633 -122 c0 -8 -15 -14
-44 -15 l-44 -2 34 18 c37 20 54 20 54 -1z"/>
</g>
</svg>
